<mxfile host="app.diagrams.net" modified="2024-05-22T17:46:50.059Z" agent="Mozilla/5.0 (Macintosh; Intel Mac OS X 10_15_7) AppleWebKit/537.36 (KHTML, like Gecko) Chrome/124.0.0.0 Safari/537.36" etag="K_dr0B6at7eMyZPIYF5o" version="24.4.4" type="device" pages="10">
  <diagram name="Страница — 1" id="obYRY0u1OprxAFr7GARg" />
  <diagram id="JdCr_RDDBHnwIJ7SBqN1" name="Страница — 2">
    <mxGraphModel dx="1020" dy="1047" grid="1" gridSize="10" guides="1" tooltips="1" connect="1" arrows="1" fold="1" page="1" pageScale="1" pageWidth="827" pageHeight="1169" math="0" shadow="0">
      <root>
        <mxCell id="0" />
        <mxCell id="1" parent="0" />
        <mxCell id="_lRbTvr3VA2TMFEBEFmN-1" value="" style="rounded=0;whiteSpace=wrap;html=1;" vertex="1" parent="1">
          <mxGeometry x="40" y="70" width="120" height="60" as="geometry" />
        </mxCell>
        <mxCell id="qlVNS7Yoer7-zzFXPHA7-1" value="" style="rounded=0;whiteSpace=wrap;html=1;" vertex="1" parent="1">
          <mxGeometry x="200" y="70" width="120" height="60" as="geometry" />
        </mxCell>
        <mxCell id="qlVNS7Yoer7-zzFXPHA7-2" value="" style="rounded=0;whiteSpace=wrap;html=1;" vertex="1" parent="1">
          <mxGeometry x="360" y="70" width="120" height="60" as="geometry" />
        </mxCell>
        <mxCell id="qlVNS7Yoer7-zzFXPHA7-3" value="" style="rounded=0;whiteSpace=wrap;html=1;" vertex="1" parent="1">
          <mxGeometry x="520" y="70" width="120" height="60" as="geometry" />
        </mxCell>
        <mxCell id="qlVNS7Yoer7-zzFXPHA7-4" value="Сервер" style="text;html=1;align=center;verticalAlign=middle;whiteSpace=wrap;rounded=0;" vertex="1" parent="1">
          <mxGeometry x="70" y="85" width="60" height="30" as="geometry" />
        </mxCell>
        <mxCell id="qlVNS7Yoer7-zzFXPHA7-5" value="SecurityConfig" style="text;html=1;align=center;verticalAlign=middle;whiteSpace=wrap;rounded=0;" vertex="1" parent="1">
          <mxGeometry x="230" y="85" width="60" height="30" as="geometry" />
        </mxCell>
        <mxCell id="qlVNS7Yoer7-zzFXPHA7-6" value="Контроллер" style="text;html=1;align=center;verticalAlign=middle;whiteSpace=wrap;rounded=0;" vertex="1" parent="1">
          <mxGeometry x="390" y="85" width="60" height="30" as="geometry" />
        </mxCell>
        <mxCell id="qlVNS7Yoer7-zzFXPHA7-7" value="Сервис" style="text;html=1;align=center;verticalAlign=middle;whiteSpace=wrap;rounded=0;" vertex="1" parent="1">
          <mxGeometry x="550" y="86" width="60" height="30" as="geometry" />
        </mxCell>
        <mxCell id="qlVNS7Yoer7-zzFXPHA7-8" value="" style="endArrow=classic;html=1;rounded=0;exitX=1;exitY=0.25;exitDx=0;exitDy=0;entryX=0;entryY=0.25;entryDx=0;entryDy=0;" edge="1" parent="1" source="_lRbTvr3VA2TMFEBEFmN-1" target="qlVNS7Yoer7-zzFXPHA7-1">
          <mxGeometry width="50" height="50" relative="1" as="geometry">
            <mxPoint x="330" y="250" as="sourcePoint" />
            <mxPoint x="380" y="200" as="targetPoint" />
          </mxGeometry>
        </mxCell>
        <mxCell id="qlVNS7Yoer7-zzFXPHA7-9" value="" style="endArrow=classic;html=1;rounded=0;exitX=1;exitY=0.25;exitDx=0;exitDy=0;entryX=0;entryY=0.25;entryDx=0;entryDy=0;" edge="1" parent="1" source="qlVNS7Yoer7-zzFXPHA7-1" target="qlVNS7Yoer7-zzFXPHA7-2">
          <mxGeometry width="50" height="50" relative="1" as="geometry">
            <mxPoint x="390" y="210" as="sourcePoint" />
            <mxPoint x="440" y="160" as="targetPoint" />
          </mxGeometry>
        </mxCell>
        <mxCell id="qlVNS7Yoer7-zzFXPHA7-10" value="" style="endArrow=classic;html=1;rounded=0;exitX=1;exitY=0.25;exitDx=0;exitDy=0;entryX=0;entryY=0.25;entryDx=0;entryDy=0;" edge="1" parent="1" source="qlVNS7Yoer7-zzFXPHA7-2" target="qlVNS7Yoer7-zzFXPHA7-3">
          <mxGeometry width="50" height="50" relative="1" as="geometry">
            <mxPoint x="490" y="220" as="sourcePoint" />
            <mxPoint x="540" y="170" as="targetPoint" />
          </mxGeometry>
        </mxCell>
        <mxCell id="qlVNS7Yoer7-zzFXPHA7-11" value="" style="endArrow=classic;html=1;rounded=0;exitX=0;exitY=0.75;exitDx=0;exitDy=0;entryX=1;entryY=0.75;entryDx=0;entryDy=0;" edge="1" parent="1" source="qlVNS7Yoer7-zzFXPHA7-3" target="qlVNS7Yoer7-zzFXPHA7-2">
          <mxGeometry width="50" height="50" relative="1" as="geometry">
            <mxPoint x="580" y="210" as="sourcePoint" />
            <mxPoint x="630" y="160" as="targetPoint" />
          </mxGeometry>
        </mxCell>
        <mxCell id="qlVNS7Yoer7-zzFXPHA7-12" value="" style="endArrow=classic;html=1;rounded=0;exitX=0;exitY=0.75;exitDx=0;exitDy=0;entryX=1;entryY=0.75;entryDx=0;entryDy=0;edgeStyle=orthogonalEdgeStyle;" edge="1" parent="1" source="qlVNS7Yoer7-zzFXPHA7-2" target="_lRbTvr3VA2TMFEBEFmN-1">
          <mxGeometry width="50" height="50" relative="1" as="geometry">
            <mxPoint x="300" y="240" as="sourcePoint" />
            <mxPoint x="350" y="190" as="targetPoint" />
            <Array as="points">
              <mxPoint x="340" y="115" />
              <mxPoint x="340" y="150" />
              <mxPoint x="180" y="150" />
              <mxPoint x="180" y="115" />
            </Array>
          </mxGeometry>
        </mxCell>
      </root>
    </mxGraphModel>
  </diagram>
  <diagram id="lH9YxNbPIpOZ3lDXuZ4W" name="Страница — 3">
    <mxGraphModel dx="571" dy="586" grid="1" gridSize="10" guides="1" tooltips="1" connect="1" arrows="1" fold="1" page="1" pageScale="1" pageWidth="827" pageHeight="1169" math="0" shadow="0">
      <root>
        <mxCell id="0" />
        <mxCell id="1" parent="0" />
        <mxCell id="dbBtAgTaxnao_3NSir6q-1" value="" style="rounded=0;whiteSpace=wrap;html=1;" vertex="1" parent="1">
          <mxGeometry x="80" y="120" width="120" height="60" as="geometry" />
        </mxCell>
        <mxCell id="dbBtAgTaxnao_3NSir6q-2" value="" style="rounded=0;whiteSpace=wrap;html=1;" vertex="1" parent="1">
          <mxGeometry x="240" y="120" width="120" height="60" as="geometry" />
        </mxCell>
        <mxCell id="dbBtAgTaxnao_3NSir6q-3" value="" style="shape=cylinder3;whiteSpace=wrap;html=1;boundedLbl=1;backgroundOutline=1;size=15;" vertex="1" parent="1">
          <mxGeometry x="400" y="105" width="86" height="90" as="geometry" />
        </mxCell>
        <mxCell id="dbBtAgTaxnao_3NSir6q-4" value="Сервис" style="text;html=1;align=center;verticalAlign=middle;whiteSpace=wrap;rounded=0;" vertex="1" parent="1">
          <mxGeometry x="110" y="135" width="60" height="30" as="geometry" />
        </mxCell>
        <mxCell id="dbBtAgTaxnao_3NSir6q-5" value="Репозиторий" style="text;html=1;align=center;verticalAlign=middle;whiteSpace=wrap;rounded=0;" vertex="1" parent="1">
          <mxGeometry x="270" y="135" width="60" height="30" as="geometry" />
        </mxCell>
        <mxCell id="dbBtAgTaxnao_3NSir6q-6" value="БД" style="text;html=1;align=center;verticalAlign=middle;whiteSpace=wrap;rounded=0;" vertex="1" parent="1">
          <mxGeometry x="414" y="140" width="60" height="30" as="geometry" />
        </mxCell>
        <mxCell id="dbBtAgTaxnao_3NSir6q-7" value="" style="endArrow=classic;html=1;rounded=0;exitX=1;exitY=0.25;exitDx=0;exitDy=0;entryX=0;entryY=0.25;entryDx=0;entryDy=0;" edge="1" parent="1" source="dbBtAgTaxnao_3NSir6q-1" target="dbBtAgTaxnao_3NSir6q-2">
          <mxGeometry width="50" height="50" relative="1" as="geometry">
            <mxPoint x="280" y="290" as="sourcePoint" />
            <mxPoint x="330" y="240" as="targetPoint" />
          </mxGeometry>
        </mxCell>
        <mxCell id="dbBtAgTaxnao_3NSir6q-9" value="" style="endArrow=classic;html=1;rounded=0;exitX=1;exitY=0.25;exitDx=0;exitDy=0;entryX=0;entryY=0;entryDx=0;entryDy=30;entryPerimeter=0;" edge="1" parent="1" source="dbBtAgTaxnao_3NSir6q-2" target="dbBtAgTaxnao_3NSir6q-3">
          <mxGeometry width="50" height="50" relative="1" as="geometry">
            <mxPoint x="380" y="280" as="sourcePoint" />
            <mxPoint x="430" y="230" as="targetPoint" />
          </mxGeometry>
        </mxCell>
        <mxCell id="dbBtAgTaxnao_3NSir6q-10" value="" style="endArrow=classic;html=1;rounded=0;exitX=0;exitY=0;exitDx=0;exitDy=60;exitPerimeter=0;entryX=1;entryY=0.75;entryDx=0;entryDy=0;" edge="1" parent="1" source="dbBtAgTaxnao_3NSir6q-3" target="dbBtAgTaxnao_3NSir6q-2">
          <mxGeometry width="50" height="50" relative="1" as="geometry">
            <mxPoint x="400" y="270" as="sourcePoint" />
            <mxPoint x="450" y="220" as="targetPoint" />
          </mxGeometry>
        </mxCell>
        <mxCell id="dbBtAgTaxnao_3NSir6q-11" value="" style="endArrow=classic;html=1;rounded=0;exitX=0;exitY=0.75;exitDx=0;exitDy=0;entryX=1;entryY=0.75;entryDx=0;entryDy=0;" edge="1" parent="1" source="dbBtAgTaxnao_3NSir6q-2" target="dbBtAgTaxnao_3NSir6q-1">
          <mxGeometry width="50" height="50" relative="1" as="geometry">
            <mxPoint x="300" y="270" as="sourcePoint" />
            <mxPoint x="350" y="220" as="targetPoint" />
          </mxGeometry>
        </mxCell>
      </root>
    </mxGraphModel>
  </diagram>
  <diagram id="bWR9qaN7xbZHl5EsI0GH" name="Страница — 4" />
  <diagram id="Bw85VieqkCJVJSS81Jbz" name="Страница — 5">
    <mxGraphModel dx="595" dy="611" grid="1" gridSize="10" guides="1" tooltips="1" connect="1" arrows="1" fold="1" page="1" pageScale="1" pageWidth="827" pageHeight="1169" math="0" shadow="0">
      <root>
        <mxCell id="0" />
        <mxCell id="1" parent="0" />
        <mxCell id="F8Fj3NmiFSCVxWaJcYT7-1" value="" style="rounded=0;whiteSpace=wrap;html=1;" vertex="1" parent="1">
          <mxGeometry x="160" y="40" width="150" height="50" as="geometry" />
        </mxCell>
        <mxCell id="F8Fj3NmiFSCVxWaJcYT7-7" value="" style="html=1;dashed=0;whiteSpace=wrap;shape=mxgraph.dfd.start" vertex="1" parent="1">
          <mxGeometry x="160" y="130" width="150" height="50" as="geometry" />
        </mxCell>
        <mxCell id="F8Fj3NmiFSCVxWaJcYT7-8" value="" style="html=1;dashed=0;whiteSpace=wrap;shape=mxgraph.dfd.start" vertex="1" parent="1">
          <mxGeometry x="160" y="210" width="150" height="50" as="geometry" />
        </mxCell>
        <mxCell id="F8Fj3NmiFSCVxWaJcYT7-9" value="" style="html=1;dashed=0;whiteSpace=wrap;shape=mxgraph.dfd.start" vertex="1" parent="1">
          <mxGeometry x="160" y="290" width="150" height="50" as="geometry" />
        </mxCell>
        <mxCell id="F8Fj3NmiFSCVxWaJcYT7-10" value="" style="html=1;dashed=0;whiteSpace=wrap;shape=mxgraph.dfd.start" vertex="1" parent="1">
          <mxGeometry x="160" y="370" width="150" height="50" as="geometry" />
        </mxCell>
        <mxCell id="F8Fj3NmiFSCVxWaJcYT7-11" value="" style="html=1;dashed=0;whiteSpace=wrap;shape=mxgraph.dfd.start" vertex="1" parent="1">
          <mxGeometry x="160" y="450" width="150" height="50" as="geometry" />
        </mxCell>
        <mxCell id="F8Fj3NmiFSCVxWaJcYT7-13" value="" style="shape=flexArrow;endArrow=classic;html=1;rounded=0;exitX=0.5;exitY=1;exitDx=0;exitDy=0;entryX=0.5;entryY=0.5;entryDx=0;entryDy=-25;entryPerimeter=0;" edge="1" parent="1" source="F8Fj3NmiFSCVxWaJcYT7-1" target="F8Fj3NmiFSCVxWaJcYT7-7">
          <mxGeometry width="50" height="50" relative="1" as="geometry">
            <mxPoint x="430" y="150" as="sourcePoint" />
            <mxPoint x="480" y="100" as="targetPoint" />
          </mxGeometry>
        </mxCell>
        <mxCell id="F8Fj3NmiFSCVxWaJcYT7-15" value="" style="shape=flexArrow;endArrow=classic;html=1;rounded=0;exitX=0.5;exitY=0.5;exitDx=0;exitDy=25;exitPerimeter=0;entryX=0.5;entryY=0.5;entryDx=0;entryDy=-25;entryPerimeter=0;" edge="1" parent="1" source="F8Fj3NmiFSCVxWaJcYT7-7" target="F8Fj3NmiFSCVxWaJcYT7-8">
          <mxGeometry width="50" height="50" relative="1" as="geometry">
            <mxPoint x="460" y="250" as="sourcePoint" />
            <mxPoint x="510" y="200" as="targetPoint" />
          </mxGeometry>
        </mxCell>
        <mxCell id="F8Fj3NmiFSCVxWaJcYT7-16" value="" style="shape=flexArrow;endArrow=classic;html=1;rounded=0;exitX=0.5;exitY=0.5;exitDx=0;exitDy=25;exitPerimeter=0;entryX=0.5;entryY=0.5;entryDx=0;entryDy=-25;entryPerimeter=0;" edge="1" parent="1" source="F8Fj3NmiFSCVxWaJcYT7-8" target="F8Fj3NmiFSCVxWaJcYT7-9">
          <mxGeometry width="50" height="50" relative="1" as="geometry">
            <mxPoint x="460" y="290" as="sourcePoint" />
            <mxPoint x="510" y="240" as="targetPoint" />
          </mxGeometry>
        </mxCell>
        <mxCell id="F8Fj3NmiFSCVxWaJcYT7-17" value="" style="shape=flexArrow;endArrow=classic;html=1;rounded=0;exitX=0.5;exitY=0.5;exitDx=0;exitDy=25;exitPerimeter=0;entryX=0.5;entryY=0.5;entryDx=0;entryDy=-25;entryPerimeter=0;" edge="1" parent="1" source="F8Fj3NmiFSCVxWaJcYT7-9" target="F8Fj3NmiFSCVxWaJcYT7-10">
          <mxGeometry width="50" height="50" relative="1" as="geometry">
            <mxPoint x="470" y="390" as="sourcePoint" />
            <mxPoint x="520" y="340" as="targetPoint" />
          </mxGeometry>
        </mxCell>
        <mxCell id="F8Fj3NmiFSCVxWaJcYT7-18" value="" style="shape=flexArrow;endArrow=classic;html=1;rounded=0;exitX=0.5;exitY=0.5;exitDx=0;exitDy=25;exitPerimeter=0;entryX=0.5;entryY=0.5;entryDx=0;entryDy=-25;entryPerimeter=0;" edge="1" parent="1" source="F8Fj3NmiFSCVxWaJcYT7-10" target="F8Fj3NmiFSCVxWaJcYT7-11">
          <mxGeometry width="50" height="50" relative="1" as="geometry">
            <mxPoint x="440" y="330" as="sourcePoint" />
            <mxPoint x="490" y="280" as="targetPoint" />
          </mxGeometry>
        </mxCell>
        <mxCell id="F8Fj3NmiFSCVxWaJcYT7-19" value="&lt;font style=&quot;font-size: 10px;&quot;&gt;Главная страница&lt;/font&gt;" style="text;html=1;align=center;verticalAlign=middle;whiteSpace=wrap;rounded=0;" vertex="1" parent="1">
          <mxGeometry x="205" y="50" width="60" height="30" as="geometry" />
        </mxCell>
        <mxCell id="F8Fj3NmiFSCVxWaJcYT7-20" value="&lt;font style=&quot;font-size: 10px;&quot;&gt;Модуль &quot;Выбор программы&quot;&lt;/font&gt;" style="text;html=1;align=center;verticalAlign=middle;whiteSpace=wrap;rounded=0;" vertex="1" parent="1">
          <mxGeometry x="167.5" y="140" width="142.5" height="30" as="geometry" />
        </mxCell>
        <mxCell id="F8Fj3NmiFSCVxWaJcYT7-21" value="&lt;font style=&quot;font-size: 10px;&quot;&gt;Модуль &quot;О нас&quot;&lt;/font&gt;" style="text;html=1;align=center;verticalAlign=middle;whiteSpace=wrap;rounded=0;" vertex="1" parent="1">
          <mxGeometry x="195" y="220" width="80" height="30" as="geometry" />
        </mxCell>
        <mxCell id="F8Fj3NmiFSCVxWaJcYT7-22" value="&lt;font style=&quot;font-size: 10px;&quot;&gt;Модуль &quot;Контакты&quot;&lt;/font&gt;" style="text;html=1;align=center;verticalAlign=middle;whiteSpace=wrap;rounded=0;" vertex="1" parent="1">
          <mxGeometry x="182.5" y="300" width="105" height="30" as="geometry" />
        </mxCell>
        <mxCell id="F8Fj3NmiFSCVxWaJcYT7-23" value="&lt;font style=&quot;font-size: 10px;&quot;&gt;Модуль &quot;Подписка&quot;&lt;/font&gt;" style="text;html=1;align=center;verticalAlign=middle;whiteSpace=wrap;rounded=0;" vertex="1" parent="1">
          <mxGeometry x="188.75" y="380" width="100" height="30" as="geometry" />
        </mxCell>
        <mxCell id="F8Fj3NmiFSCVxWaJcYT7-24" value="&lt;font style=&quot;font-size: 10px;&quot;&gt;Модуль &quot;Команда&quot;&lt;/font&gt;" style="text;html=1;align=center;verticalAlign=middle;whiteSpace=wrap;rounded=0;" vertex="1" parent="1">
          <mxGeometry x="190" y="460" width="90" height="30" as="geometry" />
        </mxCell>
      </root>
    </mxGraphModel>
  </diagram>
  <diagram id="BJbE687isuBFXNxjx3DZ" name="Страница — 6">
    <mxGraphModel dx="714" dy="733" grid="1" gridSize="10" guides="1" tooltips="1" connect="1" arrows="1" fold="1" page="1" pageScale="1" pageWidth="827" pageHeight="1169" math="0" shadow="0">
      <root>
        <mxCell id="0" />
        <mxCell id="1" parent="0" />
        <mxCell id="AiJ-sLImnrWzYbi3W1JE-1" value="" style="rounded=0;whiteSpace=wrap;html=1;" vertex="1" parent="1">
          <mxGeometry x="280" y="40" width="150" height="50" as="geometry" />
        </mxCell>
        <mxCell id="umAWe7zlNbnXIZAV9JZs-1" value="" style="html=1;dashed=0;whiteSpace=wrap;shape=mxgraph.dfd.start" vertex="1" parent="1">
          <mxGeometry x="280" y="130" width="150" height="50" as="geometry" />
        </mxCell>
        <mxCell id="wvmpGfwQYj_r65JNmTVy-1" value="" style="html=1;dashed=0;whiteSpace=wrap;shape=mxgraph.dfd.start" vertex="1" parent="1">
          <mxGeometry x="280" y="220" width="150" height="50" as="geometry" />
        </mxCell>
        <mxCell id="wvmpGfwQYj_r65JNmTVy-2" value="" style="html=1;dashed=0;whiteSpace=wrap;shape=mxgraph.dfd.start" vertex="1" parent="1">
          <mxGeometry x="280" y="310" width="150" height="50" as="geometry" />
        </mxCell>
        <mxCell id="wvmpGfwQYj_r65JNmTVy-3" value="" style="shape=flexArrow;endArrow=classic;html=1;rounded=0;exitX=0.5;exitY=1;exitDx=0;exitDy=0;entryX=0.5;entryY=0.5;entryDx=0;entryDy=-25;entryPerimeter=0;" edge="1" parent="1" source="AiJ-sLImnrWzYbi3W1JE-1" target="umAWe7zlNbnXIZAV9JZs-1">
          <mxGeometry width="50" height="50" relative="1" as="geometry">
            <mxPoint x="480" y="130" as="sourcePoint" />
            <mxPoint x="530" y="80" as="targetPoint" />
          </mxGeometry>
        </mxCell>
        <mxCell id="wvmpGfwQYj_r65JNmTVy-4" value="" style="shape=flexArrow;endArrow=classic;html=1;rounded=0;exitX=0.5;exitY=0.5;exitDx=0;exitDy=25;exitPerimeter=0;entryX=0.5;entryY=0.5;entryDx=0;entryDy=-25;entryPerimeter=0;" edge="1" parent="1" source="umAWe7zlNbnXIZAV9JZs-1" target="wvmpGfwQYj_r65JNmTVy-1">
          <mxGeometry width="50" height="50" relative="1" as="geometry">
            <mxPoint x="540" y="190" as="sourcePoint" />
            <mxPoint x="590" y="140" as="targetPoint" />
          </mxGeometry>
        </mxCell>
        <mxCell id="wvmpGfwQYj_r65JNmTVy-5" value="" style="shape=flexArrow;endArrow=classic;html=1;rounded=0;exitX=0.5;exitY=0.5;exitDx=0;exitDy=25;exitPerimeter=0;entryX=0.5;entryY=0.5;entryDx=0;entryDy=-25;entryPerimeter=0;" edge="1" parent="1" source="wvmpGfwQYj_r65JNmTVy-1" target="wvmpGfwQYj_r65JNmTVy-2">
          <mxGeometry width="50" height="50" relative="1" as="geometry">
            <mxPoint x="520" y="270" as="sourcePoint" />
            <mxPoint x="570" y="220" as="targetPoint" />
          </mxGeometry>
        </mxCell>
        <mxCell id="wvmpGfwQYj_r65JNmTVy-6" value="&lt;font style=&quot;font-size: 10px;&quot;&gt;Страница программы&lt;/font&gt;" style="text;html=1;align=center;verticalAlign=middle;whiteSpace=wrap;rounded=0;" vertex="1" parent="1">
          <mxGeometry x="292.5" y="50" width="125" height="30" as="geometry" />
        </mxCell>
        <mxCell id="wvmpGfwQYj_r65JNmTVy-7" value="&lt;font style=&quot;font-size: 10px;&quot;&gt;Модуль &quot;Больше о программе&quot;&lt;/font&gt;" style="text;html=1;align=center;verticalAlign=middle;whiteSpace=wrap;rounded=0;" vertex="1" parent="1">
          <mxGeometry x="285" y="140" width="140" height="30" as="geometry" />
        </mxCell>
        <mxCell id="wvmpGfwQYj_r65JNmTVy-8" value="&lt;font style=&quot;font-size: 10px;&quot;&gt;Модуль &quot;Тренажеры&quot;&lt;/font&gt;" style="text;html=1;align=center;verticalAlign=middle;whiteSpace=wrap;rounded=0;" vertex="1" parent="1">
          <mxGeometry x="302.5" y="230" width="105" height="30" as="geometry" />
        </mxCell>
        <mxCell id="wvmpGfwQYj_r65JNmTVy-9" value="&lt;span style=&quot;font-size: 10px;&quot;&gt;Модуль &quot;Программы&quot;&lt;/span&gt;" style="text;html=1;align=center;verticalAlign=middle;whiteSpace=wrap;rounded=0;" vertex="1" parent="1">
          <mxGeometry x="302.5" y="320" width="105" height="30" as="geometry" />
        </mxCell>
      </root>
    </mxGraphModel>
  </diagram>
  <diagram id="jgIpe48KEcS3lvAQBF1q" name="Страница — 7">
    <mxGraphModel dx="714" dy="733" grid="1" gridSize="10" guides="1" tooltips="1" connect="1" arrows="1" fold="1" page="1" pageScale="1" pageWidth="827" pageHeight="1169" math="0" shadow="0">
      <root>
        <mxCell id="0" />
        <mxCell id="1" parent="0" />
        <mxCell id="M5wJS7S5iAErjdOVG_rh-1" value="" style="rounded=0;whiteSpace=wrap;html=1;" vertex="1" parent="1">
          <mxGeometry x="280" y="40" width="150" height="50" as="geometry" />
        </mxCell>
        <mxCell id="M5wJS7S5iAErjdOVG_rh-2" value="" style="html=1;dashed=0;whiteSpace=wrap;shape=mxgraph.dfd.start" vertex="1" parent="1">
          <mxGeometry x="280" y="130" width="150" height="50" as="geometry" />
        </mxCell>
        <mxCell id="M5wJS7S5iAErjdOVG_rh-5" value="" style="shape=flexArrow;endArrow=classic;html=1;rounded=0;exitX=0.5;exitY=1;exitDx=0;exitDy=0;entryX=0.5;entryY=0.5;entryDx=0;entryDy=-25;entryPerimeter=0;" edge="1" parent="1" source="M5wJS7S5iAErjdOVG_rh-1" target="M5wJS7S5iAErjdOVG_rh-2">
          <mxGeometry width="50" height="50" relative="1" as="geometry">
            <mxPoint x="480" y="130" as="sourcePoint" />
            <mxPoint x="530" y="80" as="targetPoint" />
          </mxGeometry>
        </mxCell>
        <mxCell id="M5wJS7S5iAErjdOVG_rh-8" value="&lt;font style=&quot;font-size: 10px;&quot;&gt;Страница питание&lt;/font&gt;" style="text;html=1;align=center;verticalAlign=middle;whiteSpace=wrap;rounded=0;" vertex="1" parent="1">
          <mxGeometry x="292.5" y="50" width="125" height="30" as="geometry" />
        </mxCell>
        <mxCell id="M5wJS7S5iAErjdOVG_rh-9" value="&lt;font style=&quot;font-size: 10px;&quot;&gt;Модуль &quot;Питание&quot;&lt;/font&gt;" style="text;html=1;align=center;verticalAlign=middle;whiteSpace=wrap;rounded=0;" vertex="1" parent="1">
          <mxGeometry x="285" y="140" width="140" height="30" as="geometry" />
        </mxCell>
      </root>
    </mxGraphModel>
  </diagram>
  <diagram id="yW4hZ1Y1rKhUMe7YjjhJ" name="Страница — 8">
    <mxGraphModel dx="600" dy="637" grid="1" gridSize="10" guides="1" tooltips="1" connect="1" arrows="1" fold="1" page="1" pageScale="1" pageWidth="827" pageHeight="1169" math="0" shadow="0">
      <root>
        <mxCell id="0" />
        <mxCell id="1" parent="0" />
        <mxCell id="4aNzW3zXIJG-Ern2xNqQ-1" value="" style="rounded=0;whiteSpace=wrap;html=1;" vertex="1" parent="1">
          <mxGeometry x="280" y="40" width="150" height="50" as="geometry" />
        </mxCell>
        <mxCell id="4aNzW3zXIJG-Ern2xNqQ-2" value="" style="html=1;dashed=0;whiteSpace=wrap;shape=mxgraph.dfd.start" vertex="1" parent="1">
          <mxGeometry x="280" y="130" width="150" height="50" as="geometry" />
        </mxCell>
        <mxCell id="4aNzW3zXIJG-Ern2xNqQ-3" value="" style="shape=flexArrow;endArrow=classic;html=1;rounded=0;exitX=0.5;exitY=1;exitDx=0;exitDy=0;entryX=0.5;entryY=0.5;entryDx=0;entryDy=-25;entryPerimeter=0;" edge="1" parent="1" source="4aNzW3zXIJG-Ern2xNqQ-1" target="4aNzW3zXIJG-Ern2xNqQ-2">
          <mxGeometry width="50" height="50" relative="1" as="geometry">
            <mxPoint x="480" y="130" as="sourcePoint" />
            <mxPoint x="530" y="80" as="targetPoint" />
          </mxGeometry>
        </mxCell>
        <mxCell id="4aNzW3zXIJG-Ern2xNqQ-4" value="&lt;span style=&quot;font-size: 10px;&quot;&gt;Панель администратора&lt;/span&gt;" style="text;html=1;align=center;verticalAlign=middle;whiteSpace=wrap;rounded=0;" vertex="1" parent="1">
          <mxGeometry x="292.5" y="50" width="125" height="30" as="geometry" />
        </mxCell>
        <mxCell id="4aNzW3zXIJG-Ern2xNqQ-5" value="&lt;font style=&quot;font-size: 10px;&quot;&gt;Модуль &quot;Пользователи&quot;&lt;/font&gt;" style="text;html=1;align=center;verticalAlign=middle;whiteSpace=wrap;rounded=0;" vertex="1" parent="1">
          <mxGeometry x="285" y="140" width="140" height="30" as="geometry" />
        </mxCell>
        <mxCell id="4aNzW3zXIJG-Ern2xNqQ-6" value="" style="html=1;dashed=0;whiteSpace=wrap;shape=mxgraph.dfd.start" vertex="1" parent="1">
          <mxGeometry x="280" y="220" width="150" height="50" as="geometry" />
        </mxCell>
        <mxCell id="4aNzW3zXIJG-Ern2xNqQ-10" value="" style="shape=flexArrow;endArrow=classic;html=1;rounded=0;exitX=0.5;exitY=0.5;exitDx=0;exitDy=25;exitPerimeter=0;entryX=0.5;entryY=0.5;entryDx=0;entryDy=-25;entryPerimeter=0;" edge="1" parent="1" source="4aNzW3zXIJG-Ern2xNqQ-2" target="4aNzW3zXIJG-Ern2xNqQ-6">
          <mxGeometry width="50" height="50" relative="1" as="geometry">
            <mxPoint x="550" y="180" as="sourcePoint" />
            <mxPoint x="600" y="130" as="targetPoint" />
          </mxGeometry>
        </mxCell>
        <mxCell id="4aNzW3zXIJG-Ern2xNqQ-12" value="&lt;font style=&quot;font-size: 10px;&quot;&gt;Модуль &quot;Заявки&quot;&lt;/font&gt;" style="text;html=1;align=center;verticalAlign=middle;whiteSpace=wrap;rounded=0;" vertex="1" parent="1">
          <mxGeometry x="285" y="230" width="140" height="30" as="geometry" />
        </mxCell>
      </root>
    </mxGraphModel>
  </diagram>
  <diagram id="3j-JDsNT1w9pfip0-8oD" name="Страница — 9">
    <mxGraphModel dx="476" dy="506" grid="1" gridSize="10" guides="1" tooltips="1" connect="1" arrows="1" fold="1" page="1" pageScale="1" pageWidth="827" pageHeight="1169" math="0" shadow="0">
      <root>
        <mxCell id="0" />
        <mxCell id="1" parent="0" />
        <mxCell id="gHtToUCa7_kK8AoRGYXc-16" value="" style="rounded=0;whiteSpace=wrap;html=1;strokeColor=#C4C4C4;fillColor=#C4C4C4;" vertex="1" parent="1">
          <mxGeometry x="90" y="70" width="320" height="100" as="geometry" />
        </mxCell>
        <mxCell id="gHtToUCa7_kK8AoRGYXc-1" value="" style="rounded=0;whiteSpace=wrap;html=1;fillColor=#FFFFFF;strokeColor=#FFFFFF;" vertex="1" parent="1">
          <mxGeometry x="100" y="80" width="60" height="40" as="geometry" />
        </mxCell>
        <mxCell id="gHtToUCa7_kK8AoRGYXc-2" value="" style="rounded=0;whiteSpace=wrap;html=1;fillColor=#121212;strokeColor=#121212;" vertex="1" parent="1">
          <mxGeometry x="180" y="80" width="60" height="40" as="geometry" />
        </mxCell>
        <mxCell id="gHtToUCa7_kK8AoRGYXc-5" value="" style="rounded=0;whiteSpace=wrap;html=1;strokeColor=#00FFFF;fillColor=#00FFFF;" vertex="1" parent="1">
          <mxGeometry x="260" y="80" width="60" height="40" as="geometry" />
        </mxCell>
        <mxCell id="gHtToUCa7_kK8AoRGYXc-6" value="" style="rounded=0;whiteSpace=wrap;html=1;strokeColor=#00ADAD;fillColor=#00ADAD;" vertex="1" parent="1">
          <mxGeometry x="340" y="80" width="60" height="40" as="geometry" />
        </mxCell>
        <mxCell id="gHtToUCa7_kK8AoRGYXc-8" value="&lt;font style=&quot;font-size: 10px;&quot;&gt;FFFFFF&lt;/font&gt;" style="text;html=1;align=center;verticalAlign=middle;whiteSpace=wrap;rounded=0;" vertex="1" parent="1">
          <mxGeometry x="100" y="140" width="60" height="30" as="geometry" />
        </mxCell>
        <mxCell id="gHtToUCa7_kK8AoRGYXc-9" value="&lt;font style=&quot;font-size: 10px;&quot;&gt;белый&lt;/font&gt;" style="text;html=1;align=center;verticalAlign=middle;whiteSpace=wrap;rounded=0;" vertex="1" parent="1">
          <mxGeometry x="100" y="120" width="60" height="30" as="geometry" />
        </mxCell>
        <mxCell id="gHtToUCa7_kK8AoRGYXc-10" value="&lt;font style=&quot;font-size: 10px;&quot;&gt;черный&lt;/font&gt;" style="text;html=1;align=center;verticalAlign=middle;whiteSpace=wrap;rounded=0;" vertex="1" parent="1">
          <mxGeometry x="180" y="120" width="60" height="30" as="geometry" />
        </mxCell>
        <mxCell id="gHtToUCa7_kK8AoRGYXc-11" value="&lt;font style=&quot;font-size: 10px;&quot;&gt;121212&lt;/font&gt;" style="text;html=1;align=center;verticalAlign=middle;whiteSpace=wrap;rounded=0;" vertex="1" parent="1">
          <mxGeometry x="180" y="140" width="60" height="30" as="geometry" />
        </mxCell>
        <mxCell id="gHtToUCa7_kK8AoRGYXc-12" value="&lt;font style=&quot;font-size: 10px;&quot;&gt;акцент&lt;/font&gt;" style="text;html=1;align=center;verticalAlign=middle;whiteSpace=wrap;rounded=0;" vertex="1" parent="1">
          <mxGeometry x="260" y="120" width="60" height="30" as="geometry" />
        </mxCell>
        <mxCell id="gHtToUCa7_kK8AoRGYXc-13" value="&lt;font style=&quot;font-size: 10px;&quot;&gt;00FFF&lt;/font&gt;" style="text;html=1;align=center;verticalAlign=middle;whiteSpace=wrap;rounded=0;" vertex="1" parent="1">
          <mxGeometry x="260" y="140" width="60" height="30" as="geometry" />
        </mxCell>
        <mxCell id="gHtToUCa7_kK8AoRGYXc-14" value="&lt;span style=&quot;font-size: 10px;&quot;&gt;нажатие&lt;/span&gt;" style="text;html=1;align=center;verticalAlign=middle;whiteSpace=wrap;rounded=0;" vertex="1" parent="1">
          <mxGeometry x="340" y="120" width="60" height="30" as="geometry" />
        </mxCell>
        <mxCell id="gHtToUCa7_kK8AoRGYXc-15" value="&lt;font style=&quot;font-size: 10px;&quot;&gt;00ADAD&lt;/font&gt;" style="text;html=1;align=center;verticalAlign=middle;whiteSpace=wrap;rounded=0;" vertex="1" parent="1">
          <mxGeometry x="340" y="140" width="60" height="30" as="geometry" />
        </mxCell>
      </root>
    </mxGraphModel>
  </diagram>
  <diagram id="LSs7abI5vepzHcFQ6hpD" name="Страница — 10">
    <mxGraphModel dx="690" dy="733" grid="1" gridSize="10" guides="1" tooltips="1" connect="1" arrows="1" fold="1" page="1" pageScale="1" pageWidth="827" pageHeight="1169" math="0" shadow="0">
      <root>
        <mxCell id="0" />
        <mxCell id="1" parent="0" />
        <mxCell id="D3m82PRKAu52PgzI6rm1-1" value="" style="rounded=0;whiteSpace=wrap;html=1;fillColor=#C4C4C4;strokeColor=#C4C4C4;" vertex="1" parent="1">
          <mxGeometry x="90" y="235" width="220" height="65" as="geometry" />
        </mxCell>
        <mxCell id="D3m82PRKAu52PgzI6rm1-2" value="&lt;font color=&quot;#00ffff&quot; style=&quot;font-size: 10px;&quot;&gt;Заголовок H1&lt;/font&gt;&lt;div&gt;&lt;font style=&quot;font-size: 10px;&quot;&gt;Font Sport&lt;br&gt;Size 36 px&lt;/font&gt;&lt;/div&gt;" style="text;html=1;align=left;verticalAlign=middle;whiteSpace=wrap;rounded=0;" vertex="1" parent="1">
          <mxGeometry x="100" y="250" width="90" height="30" as="geometry" />
        </mxCell>
        <mxCell id="D3m82PRKAu52PgzI6rm1-3" value="&lt;span style=&quot;font-size: 10px;&quot;&gt;&lt;font color=&quot;#00ffff&quot;&gt;Текст p1&lt;/font&gt;&lt;/span&gt;&lt;br&gt;&lt;div&gt;&lt;font style=&quot;font-size: 10px;&quot;&gt;Font Sport&lt;br&gt;Size 24 px&lt;/font&gt;&lt;/div&gt;" style="text;html=1;align=left;verticalAlign=middle;whiteSpace=wrap;rounded=0;" vertex="1" parent="1">
          <mxGeometry x="180" y="250" width="90" height="30" as="geometry" />
        </mxCell>
        <mxCell id="D3m82PRKAu52PgzI6rm1-4" value="&lt;span style=&quot;font-size: 10px;&quot;&gt;&lt;font color=&quot;#00ffff&quot;&gt;Кнопка&lt;/font&gt;&lt;/span&gt;&lt;br&gt;&lt;div&gt;&lt;font style=&quot;font-size: 10px;&quot;&gt;Font Sport&lt;br&gt;Size 18 px&lt;/font&gt;&lt;/div&gt;" style="text;html=1;align=left;verticalAlign=middle;whiteSpace=wrap;rounded=0;" vertex="1" parent="1">
          <mxGeometry x="250" y="250" width="90" height="30" as="geometry" />
        </mxCell>
      </root>
    </mxGraphModel>
  </diagram>
</mxfile>
